Latin-Mizra-Medium - Witht Production Names.ufo
<glyph name="exclam" format="1">
  <advance width="243"/>
  <unicode hex="0021"/>
  <outline>
    <contour>
      <point x="91" y="171" type="line"/>
      <point x="115" y="195"/>
      <point x="141" y="216"/>
      <point x="168" y="236" type="curve"/>
      <point x="168" y="363"/>
      <point x="173" y="492"/>
      <point x="180" y="547" type="curve"/>
      <point x="129" y="547"/>
      <point x="92" y="540"/>
      <point x="50" y="524" type="curve"/>
      <point x="62" y="500"/>
      <point x="69" y="436"/>
      <point x="69" y="359" type="curve" smooth="yes"/>
      <point x="69" y="171" type="line"/>
    </contour>
    <contour>
      <point x="151" y="10"/>
      <point x="176" y="35"/>
      <point x="201" y="65" type="curve"/>
      <point x="171" y="90"/>
      <point x="146" y="115"/>
      <point x="121" y="145" type="curve"/>
      <point x="91" y="120"/>
      <point x="66" y="95"/>
      <point x="41" y="65" type="curve"/>
      <point x="71" y="40"/>
      <point x="96" y="15"/>
      <point x="121" y="-15" type="curve"/>
    </contour>
  </outline>
</glyph>
<glyph name="dollar" format="1">
  <advance width="457"/>
  <unicode hex="0024"/>
  <outline>
    <contour>
      <point x="244" y="-86"/>
      <point x="257" y="-84"/>
      <point x="269" y="-81" type="curve"/>
      <point x="265" y="-63"/>
      <point x="263" y="-32"/>
      <point x="261" y="11" type="curve"/>
      <point x="371" y="21"/>
      <point x="424" y="71"/>
      <point x="424" y="150" type="curve" smooth="yes"/>
      <point x="424" y="308"/>
      <point x="153" y="303"/>
      <point x="153" y="400" type="curve" smooth="yes"/>
      <point x="153" y="428"/>
      <point x="183" y="446"/>
      <point x="204" y="450" type="curve"/>
      <point x="245" y="450"/>
      <point x="312" y="417"/>
      <point x="368" y="375" type="curve"/>
      <point x="387" y="401"/>
      <point x="404" y="454"/>
      <point x="404" y="489" type="curve"/>
      <point x="364" y="504"/>
      <point x="316" y="512"/>
      <point x="262" y="513" type="curve"/>
      <point x="262" y="550"/>
      <point x="264" y="581"/>
      <point x="265" y="607" type="curve"/>
      <point x="252" y="611"/>
      <point x="238" y="614"/>
      <point x="227" y="614" type="curve" smooth="yes"/>
      <point x="214" y="614"/>
      <point x="200" y="611"/>
      <point x="189" y="607" type="curve"/>
      <point x="192" y="588"/>
      <point x="195" y="556"/>
      <point x="196" y="510" type="curve"/>
      <point x="98" y="497"/>
      <point x="38" y="448"/>
      <point x="38" y="382" type="curve" smooth="yes"/>
      <point x="38" y="224"/>
      <point x="310" y="222"/>
      <point x="310" y="132" type="curve" smooth="yes"/>
      <point x="310" y="95"/>
      <point x="274" y="74"/>
      <point x="209" y="74" type="curve" smooth="yes"/>
      <point x="143" y="74"/>
      <point x="83" y="93"/>
      <point x="50" y="125" type="curve"/>
      <point x="38" y="100"/>
      <point x="33" y="78"/>
      <point x="33" y="45" type="curve"/>
      <point x="76" y="25"/>
      <point x="131" y="12"/>
      <point x="195" y="9" type="curve"/>
      <point x="194" y="-25"/>
      <point x="193" y="-56"/>
      <point x="192" y="-81" type="curve"/>
      <point x="207" y="-84"/>
      <point x="220" y="-86"/>
      <point x="231" y="-86" type="curve" smooth="yes"/>
    </contour>
    <contour>
      <point x="222" y="527" type="move" name="top"/>
    </contour>
    <contour>
      <point x="222" y="0" type="move" name="bottom"/>
    </contour>
  </outline>
</glyph>
<glyph name="parenleft" format="1">
  <advance width="331"/>
  <unicode hex="0028"/>
  <outline>
    <contour>
      <point x="321" y="-104"/>
      <point x="323" y="-90"/>
      <point x="323" y="-77" type="curve" smooth="yes"/>
      <point x="323" y="-59"/>
      <point x="321" y="-42"/>
      <point x="318" y="-23" type="curve"/>
      <point x="277" y="-29"/>
      <point x="243" y="-32"/>
      <point x="215" y="-32" type="curve"/>
      <point x="181" y="-22"/>
      <point x="164" y="121"/>
      <point x="164" y="264" type="curve" smooth="yes"/>
      <point x="164" y="407"/>
      <point x="181" y="549"/>
      <point x="215" y="559" type="curve"/>
      <point x="243" y="559"/>
      <point x="277" y="556"/>
      <point x="318" y="550" type="curve"/>
      <point x="321" y="569"/>
      <point x="323" y="586"/>
      <point x="323" y="605" type="curve" smooth="yes"/>
      <point x="323" y="618"/>
      <point x="321" y="632"/>
      <point x="318" y="647" type="curve"/>
      <point x="137" y="647"/>
      <point x="45" y="506"/>
      <point x="45" y="264" type="curve" smooth="yes"/>
      <point x="45" y="23"/>
      <point x="137" y="-119"/>
      <point x="318" y="-119" type="curve"/>
    </contour>
  </outline>
</glyph>
<glyph name="asterisk" format="1">
  <advance width="404"/>
  <unicode hex="002A"/>
  <outline>
    <contour>
      <point x="213" y="274"/>
      <point x="241" y="280"/>
      <point x="276" y="290" type="curve"/>
      <point x="277" y="333"/>
      <point x="260" y="377"/>
      <point x="226" y="420" type="curve"/>
      <point x="281" y="420"/>
      <point x="320" y="417"/>
      <point x="366" y="407" type="curve"/>
      <point x="366" y="448"/>
      <point x="360" y="477"/>
      <point x="350" y="512" type="curve"/>
      <point x="306" y="513"/>
      <point x="263" y="496"/>
      <point x="219" y="462" type="curve"/>
      <point x="219" y="516"/>
      <point x="221" y="555"/>
      <point x="232" y="602" type="curve"/>
      <point x="189" y="602"/>
      <point x="161" y="596"/>
      <point x="126" y="585" type="curve"/>
      <point x="125" y="541"/>
      <point x="142" y="497"/>
      <point x="177" y="455" type="curve"/>
      <point x="123" y="455"/>
      <point x="85" y="457"/>
      <point x="38" y="468" type="curve"/>
      <point x="38" y="426"/>
      <point x="43" y="397"/>
      <point x="55" y="362" type="curve"/>
      <point x="97" y="361"/>
      <point x="141" y="378"/>
      <point x="184" y="413" type="curve"/>
      <point x="184" y="357"/>
      <point x="181" y="320"/>
      <point x="171" y="274" type="curve"/>
    </contour>
  </outline>
</glyph>
<glyph name="period" format="1">
  <advance width="210"/>
  <unicode hex="002E"/>
  <outline>
    <contour>
      <point x="135" y="10"/>
      <point x="160" y="35"/>
      <point x="185" y="65" type="curve"/>
      <point x="155" y="90"/>
      <point x="130" y="115"/>
      <point x="105" y="145" type="curve"/>
      <point x="75" y="120"/>
      <point x="50" y="95"/>
      <point x="25" y="65" type="curve"/>
      <point x="55" y="40"/>
      <point x="80" y="15"/>
      <point x="105" y="-15" type="curve"/>
    </contour>
  </outline>
</glyph>
<glyph name="one" format="1">
  <advance width="343"/>
  <unicode hex="0031"/>
  <outline>
    <contour>
      <point x="247" y="-6"/>
      <point x="269" y="-4"/>
      <point x="290" y="0" type="curve"/>
      <point x="279" y="30"/>
      <point x="274" y="105"/>
      <point x="274" y="227" type="curve" smooth="yes"/>
      <point x="274" y="329"/>
      <point x="279" y="460"/>
      <point x="285" y="527" type="curve"/>
      <point x="260" y="531"/>
      <point x="238" y="533"/>
      <point x="219" y="533" type="curve"/>
      <point x="202" y="516"/>
      <point x="156" y="481"/>
      <point x="112" y="456" type="curve" smooth="yes"/>
      <point x="79" y="437"/>
      <point x="46" y="418"/>
      <point x="8" y="400" type="curve"/>
      <point x="17" y="368"/>
      <point x="29" y="342"/>
      <point x="49" y="316" type="curve"/>
      <point x="167" y="391" type="line"/>
      <point x="168" y="363"/>
      <point x="168" y="332"/>
      <point x="168" y="297" type="curve" smooth="yes"/>
      <point x="168" y="196"/>
      <point x="163" y="69"/>
      <point x="157" y="0" type="curve"/>
      <point x="183" y="-4"/>
      <point x="206" y="-6"/>
      <point x="227" y="-6" type="curve" smooth="yes"/>
    </contour>
  </outline>
</glyph>
<glyph name="two" format="1">
  <advance width="510"/>
  <unicode hex="0032"/>
  <outline>
    <contour>
      <point x="460" y="14"/>
      <point x="469" y="72"/>
      <point x="469" y="116" type="curve"/>
      <point x="428" y="100"/>
      <point x="358" y="90"/>
      <point x="289" y="90" type="curve" smooth="yes"/>
      <point x="255" y="90"/>
      <point x="215" y="93"/>
      <point x="189" y="97" type="curve"/>
      <point x="359" y="223"/>
      <point x="440" y="323"/>
      <point x="440" y="407" type="curve" smooth="yes"/>
      <point x="440" y="487"/>
      <point x="370" y="534"/>
      <point x="249" y="534" type="curve" smooth="yes"/>
      <point x="174" y="534"/>
      <point x="93" y="520"/>
      <point x="53" y="499" type="curve"/>
      <point x="53" y="464"/>
      <point x="69" y="411"/>
      <point x="89" y="385" type="curve"/>
      <point x="152" y="432"/>
      <point x="219" y="465"/>
      <point x="259" y="470" type="curve"/>
      <point x="301" y="463"/>
      <point x="323" y="438"/>
      <point x="323" y="397" type="curve" smooth="yes"/>
      <point x="323" y="311"/>
      <point x="237" y="197"/>
      <point x="42" y="41" type="curve"/>
      <point x="42" y="0" type="line"/>
      <point x="141" y="5"/>
      <point x="404" y="2"/>
      <point x="448" y="-5" type="curve"/>
    </contour>
  </outline>
</glyph>
<glyph name="four" format="1">
  <advance width="491"/>
  <unicode hex="0034"/>
  <outline>
    <contour>
      <point x="367" y="-6"/>
      <point x="389" y="-4"/>
      <point x="410" y="0" type="curve"/>
      <point x="400" y="22"/>
      <point x="396" y="57"/>
      <point x="394" y="113" type="curve"/>
      <point x="441" y="107" type="line"/>
      <point x="455" y="138"/>
      <point x="464" y="184"/>
      <point x="464" y="218" type="curve"/>
      <point x="447" y="211"/>
      <point x="425" y="207"/>
      <point x="395" y="204" type="curve"/>
      <point x="396" y="256"/>
      <point x="400" y="310"/>
      <point x="405" y="342" type="curve"/>
      <point x="379" y="346"/>
      <point x="356" y="348"/>
      <point x="335" y="348" type="curve" smooth="yes"/>
      <point x="315" y="348"/>
      <point x="293" y="346"/>
      <point x="272" y="342" type="curve"/>
      <point x="282" y="318"/>
      <point x="288" y="276"/>
      <point x="288" y="200" type="curve"/>
      <point x="227" y="200"/>
      <point x="164" y="201"/>
      <point x="111" y="202" type="curve"/>
      <point x="216" y="366"/>
      <point x="311" y="470"/>
      <point x="362" y="515" type="curve"/>
      <point x="323" y="539"/>
      <point x="283" y="546"/>
      <point x="232" y="546" type="curve"/>
      <point x="182" y="467"/>
      <point x="80" y="297"/>
      <point x="45" y="235" type="curve" smooth="yes"/>
      <point x="26" y="202"/>
      <point x="17" y="177"/>
      <point x="17" y="147" type="curve" smooth="yes"/>
      <point x="17" y="127"/>
      <point x="25" y="109"/>
      <point x="42" y="98" type="curve"/>
      <point x="81" y="113"/>
      <point x="135" y="117"/>
      <point x="232" y="117" type="curve" smooth="yes"/>
      <point x="286" y="117" type="line"/>
      <point x="285" y="72"/>
      <point x="281" y="28"/>
      <point x="277" y="0" type="curve"/>
      <point x="303" y="-4"/>
      <point x="326" y="-6"/>
      <point x="347" y="-6" type="curve" smooth="yes"/>
    </contour>
  </outline>
</glyph>
<glyph name="six" format="1">
  <advance width="506"/>
  <unicode hex="0036"/>
  <outline>
    <contour>
      <point x="380" y="-9"/>
      <point x="471" y="64"/>
      <point x="471" y="168" type="curve" smooth="yes"/>
      <point x="471" y="269"/>
      <point x="398" y="337"/>
      <point x="290" y="337" type="curve" smooth="yes"/>
      <point x="243" y="337"/>
      <point x="197" y="322"/>
      <point x="155" y="294" type="curve"/>
      <point x="168" y="385"/>
      <point x="206" y="445"/>
      <point x="266" y="466" type="curve"/>
      <point x="297" y="466"/>
      <point x="356" y="435"/>
      <point x="403" y="395" type="curve"/>
      <point x="422" y="419"/>
      <point x="439" y="474"/>
      <point x="439" y="509" type="curve"/>
      <point x="405" y="525"/>
      <point x="362" y="533"/>
      <point x="313" y="533" type="curve" smooth="yes"/>
      <point x="131" y="533"/>
      <point x="35" y="426"/>
      <point x="35" y="223" type="curve" smooth="yes"/>
      <point x="35" y="84"/>
      <point x="121" y="-9"/>
      <point x="250" y="-9" type="curve" smooth="yes"/>
    </contour>
    <contour>
      <point x="189" y="54"/>
      <point x="150" y="115"/>
      <point x="150" y="221" type="curve" smooth="yes"/>
      <point x="150" y="229" type="line"/>
      <point x="176" y="250"/>
      <point x="207" y="265"/>
      <point x="240" y="274" type="curve"/>
      <point x="311" y="274"/>
      <point x="356" y="234"/>
      <point x="356" y="171" type="curve" smooth="yes"/>
      <point x="356" y="100"/>
      <point x="317" y="54"/>
      <point x="257" y="54" type="curve" smooth="yes"/>
    </contour>
  </outline>
</glyph>
<glyph name="seven" format="1">
  <advance width="461"/>
  <unicode hex="0037"/>
  <outline>
    <contour>
      <point x="248" y="99"/>
      <point x="361" y="318"/>
      <point x="406" y="396" type="curve" smooth="yes"/>
      <point x="425" y="432"/>
      <point x="434" y="457"/>
      <point x="434" y="490" type="curve" smooth="yes"/>
      <point x="434" y="508"/>
      <point x="425" y="532"/>
      <point x="402" y="546" type="curve"/>
      <point x="365" y="523"/>
      <point x="313" y="516"/>
      <point x="226" y="516" type="curve" smooth="yes"/>
      <point x="141" y="516"/>
      <point x="64" y="520"/>
      <point x="27" y="527" type="curve"/>
      <point x="27" y="489"/>
      <point x="36" y="440"/>
      <point x="50" y="406" type="curve"/>
      <point x="72" y="418"/>
      <point x="101" y="424"/>
      <point x="151" y="424" type="curve" smooth="yes"/>
      <point x="214" y="424"/>
      <point x="281" y="423"/>
      <point x="338" y="422" type="curve"/>
      <point x="225" y="213"/>
      <point x="118" y="82"/>
      <point x="66" y="25" type="curve"/>
      <point x="105" y="1"/>
      <point x="145" y="-6"/>
      <point x="196" y="-6" type="curve"/>
    </contour>
  </outline>
</glyph>
<glyph name="greater" format="1">
  <advance width="533"/>
  <unicode hex="003E"/>
  <outline>
    <contour>
      <point x="204" y="124"/>
      <point x="359" y="187"/>
      <point x="466" y="224" type="curve"/>
      <point x="468" y="238"/>
      <point x="469" y="252"/>
      <point x="469" y="266" type="curve" smooth="yes"/>
      <point x="469" y="279"/>
      <point x="468" y="293"/>
      <point x="466" y="307" type="curve"/>
      <point x="359" y="344"/>
      <point x="204" y="407"/>
      <point x="101" y="455" type="curve"/>
      <point x="83" y="430"/>
      <point x="74" y="406"/>
      <point x="68" y="375" type="curve"/>
      <point x="358" y="266" type="line"/>
      <point x="68" y="156" type="line"/>
      <point x="73" y="129"/>
      <point x="83" y="100"/>
      <point x="101" y="76" type="curve"/>
    </contour>
  </outline>
</glyph>
<glyph name="question" format="1">
  <advance width="383"/>
  <unicode hex="003F"/>
  <outline>
    <contour>
      <point x="252" y="224"/>
      <point x="346" y="291"/>
      <point x="346" y="391" type="curve" smooth="yes"/>
      <point x="346" y="492"/>
      <point x="285" y="547"/>
      <point x="171" y="547" type="curve" smooth="yes"/>
      <point x="114" y="547"/>
      <point x="63" y="531"/>
      <point x="18" y="501" type="curve"/>
      <point x="18" y="470"/>
      <point x="22" y="448"/>
      <point x="32" y="421" type="curve"/>
      <point x="56" y="459"/>
      <point x="98" y="482"/>
      <point x="144" y="482" type="curve" smooth="yes"/>
      <point x="199" y="482"/>
      <point x="231" y="449"/>
      <point x="231" y="389" type="curve" smooth="yes"/>
      <point x="231" y="333"/>
      <point x="197" y="288"/>
      <point x="133" y="262" type="curve"/>
      <point x="152" y="212" type="line"/>
    </contour>
    <contour>
      <point x="192" y="10"/>
      <point x="217" y="35"/>
      <point x="242" y="65" type="curve"/>
      <point x="212" y="90"/>
      <point x="187" y="115"/>
      <point x="162" y="145" type="curve"/>
      <point x="132" y="120"/>
      <point x="107" y="95"/>
      <point x="82" y="65" type="curve"/>
      <point x="112" y="40"/>
      <point x="137" y="15"/>
      <point x="162" y="-15" type="curve"/>
    </contour>
  </outline>
</glyph>
<glyph name="at" format="1">
  <advance width="822"/>
  <unicode hex="0040"/>
  <outline>
    <contour>
      <point x="425" y="-124"/>
      <point x="469" y="-113"/>
      <point x="505" y="-94" type="curve"/>
      <point x="505" y="-72"/>
      <point x="501" y="-57"/>
      <point x="489" y="-37" type="curve"/>
      <point x="465" y="-55"/>
      <point x="421" y="-66"/>
      <point x="379" y="-66" type="curve" smooth="yes"/>
      <point x="219" y="-66"/>
      <point x="132" y="54"/>
      <point x="132" y="214" type="curve" smooth="yes"/>
      <point x="132" y="380"/>
      <point x="258" y="500"/>
      <point x="435" y="500" type="curve"/>
      <point x="599" y="475"/>
      <point x="696" y="365"/>
      <point x="696" y="206" type="curve" smooth="yes"/>
      <point x="696" y="99"/>
      <point x="650" y="52"/>
      <point x="614" y="52" type="curve" smooth="yes"/>
      <point x="583" y="52"/>
      <point x="557" y="69"/>
      <point x="557" y="134" type="curve" smooth="yes"/>
      <point x="557" y="188"/>
      <point x="565" y="239"/>
      <point x="565" y="293" type="curve" smooth="yes"/>
      <point x="565" y="364"/>
      <point x="518" y="403"/>
      <point x="434" y="403" type="curve" smooth="yes"/>
      <point x="372" y="403"/>
      <point x="308" y="370"/>
      <point x="273" y="321" type="curve"/>
      <point x="283" y="277" type="line"/>
      <point x="312" y="301"/>
      <point x="354" y="315"/>
      <point x="393" y="315" type="curve" smooth="yes"/>
      <point x="442" y="315"/>
      <point x="464" y="294"/>
      <point x="465" y="242" type="curve"/>
      <point x="326" y="233"/>
      <point x="256" y="195"/>
      <point x="256" y="126" type="curve" smooth="yes"/>
      <point x="256" y="81"/>
      <point x="286" y="49"/>
      <point x="340" y="49" type="curve" smooth="yes"/>
      <point x="377" y="49"/>
      <point x="423" y="64"/>
      <point x="465" y="89" type="curve"/>
      <point x="480" y="18"/>
      <point x="535" y="-10"/>
      <point x="592" y="-10" type="curve" smooth="yes"/>
      <point x="675" y="-10"/>
      <point x="771" y="65"/>
      <point x="771" y="251" type="curve" smooth="yes"/>
      <point x="771" y="458"/>
      <point x="637" y="595"/>
      <point x="436" y="595" type="curve" smooth="yes"/>
      <point x="211" y="595"/>
      <point x="52" y="438"/>
      <point x="52" y="212" type="curve" smooth="yes"/>
      <point x="52" y="11"/>
      <point x="182" y="-124"/>
      <point x="376" y="-124" type="curve" smooth="yes"/>
    </contour>
    <contour>
      <point x="372" y="110"/>
      <point x="361" y="128"/>
      <point x="361" y="145" type="curve" smooth="yes"/>
      <point x="361" y="180"/>
      <point x="398" y="202"/>
      <point x="465" y="206" type="curve"/>
      <point x="461" y="179"/>
      <point x="460" y="152"/>
      <point x="460" y="129" type="curve"/>
      <point x="437" y="115"/>
      <point x="409" y="104"/>
      <point x="386" y="102" type="curve"/>
    </contour>
  </outline>
</glyph>
<glyph name="B" format="1">
  <advance width="527"/>
  <unicode hex="0042"/>
  <outline>
    <contour>
      <point x="411" y="-12"/>
      <point x="491" y="44"/>
      <point x="491" y="144" type="curve" smooth="yes"/>
      <point x="491" y="204"/>
      <point x="451" y="253"/>
      <point x="384" y="278" type="curve"/>
      <point x="435" y="303"/>
      <point x="466" y="343"/>
      <point x="466" y="391" type="curve" smooth="yes"/>
      <point x="466" y="482"/>
      <point x="394" y="532"/>
      <point x="262" y="532" type="curve" smooth="yes"/>
      <point x="187" y="532"/>
      <point x="105" y="521"/>
      <point x="55" y="505" type="curve"/>
      <point x="66" y="480"/>
      <point x="71" y="418"/>
      <point x="71" y="307" type="curve" smooth="yes"/>
      <point x="71" y="200"/>
      <point x="67" y="72"/>
      <point x="62" y="15" type="curve"/>
      <point x="111" y="-1"/>
      <point x="192" y="-12"/>
      <point x="266" y="-12" type="curve" smooth="yes"/>
    </contour>
    <contour>
      <point x="230" y="43"/>
      <point x="204" y="47"/>
      <point x="181" y="55" type="curve"/>
      <point x="178" y="93"/>
      <point x="176" y="148"/>
      <point x="176" y="221" type="curve"/>
      <point x="222" y="236"/>
      <point x="268" y="247"/>
      <point x="295" y="247" type="curve"/>
      <point x="347" y="227"/>
      <point x="376" y="190"/>
      <point x="376" y="144" type="curve" smooth="yes"/>
      <point x="376" y="76"/>
      <point x="335" y="43"/>
      <point x="255" y="43" type="curve" smooth="yes"/>
    </contour>
    <contour>
      <point x="178" y="341"/>
      <point x="180" y="399"/>
      <point x="183" y="448" type="curve"/>
      <point x="204" y="454"/>
      <point x="227" y="457"/>
      <point x="251" y="457" type="curve" smooth="yes"/>
      <point x="317" y="457"/>
      <point x="351" y="432"/>
      <point x="351" y="380" type="curve" smooth="yes"/>
      <point x="351" y="349"/>
      <point x="331" y="319"/>
      <point x="296" y="296" type="curve"/>
      <point x="254" y="299"/>
      <point x="211" y="296"/>
      <point x="177" y="288" type="curve"/>
    </contour>
  </outline>
</glyph>
<glyph name="D" format="1">
  <advance width="580"/>
  <unicode hex="0044"/>
  <outline>
    <contour>
      <point x="420" y="-6"/>
      <point x="543" y="105"/>
      <point x="543" y="266" type="curve" smooth="yes"/>
      <point x="543" y="437"/>
      <point x="443" y="532"/>
      <point x="261" y="532" type="curve" smooth="yes"/>
      <point x="183" y="532"/>
      <point x="100" y="521"/>
      <point x="55" y="505" type="curve"/>
      <point x="66" y="478"/>
      <point x="71" y="408"/>
      <point x="71" y="300" type="curve" smooth="yes"/>
      <point x="71" y="199"/>
      <point x="66" y="73"/>
      <point x="60" y="10" type="curve"/>
      <point x="109" y="0"/>
      <point x="181" y="-6"/>
      <point x="241" y="-6" type="curve" smooth="yes"/>
    </contour>
    <contour>
      <point x="263" y="55"/>
      <point x="223" y="62"/>
      <point x="180" y="74" type="curve"/>
      <point x="178" y="113"/>
      <point x="176" y="164"/>
      <point x="176" y="227" type="curve" smooth="yes"/>
      <point x="176" y="300"/>
      <point x="179" y="386"/>
      <point x="183" y="449" type="curve"/>
      <point x="201" y="455"/>
      <point x="220" y="457"/>
      <point x="240" y="457" type="curve" smooth="yes"/>
      <point x="359" y="457"/>
      <point x="428" y="395"/>
      <point x="428" y="248" type="curve" smooth="yes"/>
      <point x="428" y="158"/>
      <point x="365" y="68"/>
      <point x="288" y="55" type="curve"/>
    </contour>
    <contour>
      <point x="176" y="264" type="move" name="center"/>
    </contour>
    <contour>
      <point x="290" y="0" type="move" name="bottom"/>
    </contour>
    <contour>
      <point x="290" y="527" type="move" name="top"/>
    </contour>
  </outline>
</glyph>
<glyph name="E" format="1">
  <advance width="473"/>
  <unicode hex="0045"/>
  <outline>
    <contour>
      <point x="100" y="2"/>
      <point x="152" y="4"/>
      <point x="228" y="4" type="curve" smooth="yes"/>
      <point x="298" y="4"/>
      <point x="369" y="2"/>
      <point x="417" y="-3" type="curve"/>
      <point x="430" y="16"/>
      <point x="438" y="75"/>
      <point x="438" y="113" type="curve"/>
      <point x="398" y="96"/>
      <point x="332" y="86"/>
      <point x="273" y="86" type="curve" smooth="yes"/>
      <point x="241" y="86"/>
      <point x="207" y="89"/>
      <point x="180" y="94" type="curve"/>
      <point x="177" y="127"/>
      <point x="176" y="170"/>
      <point x="176" y="229" type="curve"/>
      <point x="233" y="231"/>
      <point x="307" y="227"/>
      <point x="382" y="223" type="curve"/>
      <point x="384" y="237"/>
      <point x="386" y="253"/>
      <point x="386" y="266" type="curve" smooth="yes"/>
      <point x="386" y="280"/>
      <point x="384" y="296"/>
      <point x="382" y="308" type="curve"/>
      <point x="344" y="301"/>
      <point x="319" y="297"/>
      <point x="247" y="297" type="curve" smooth="yes"/>
      <point x="225" y="297"/>
      <point x="200" y="298"/>
      <point x="177" y="299" type="curve"/>
      <point x="178" y="344"/>
      <point x="180" y="391"/>
      <point x="182" y="431" type="curve"/>
      <point x="207" y="435"/>
      <point x="239" y="438"/>
      <point x="268" y="438" type="curve" smooth="yes"/>
      <point x="320" y="438"/>
      <point x="378" y="429"/>
      <point x="413" y="411" type="curve"/>
      <point x="426" y="429"/>
      <point x="434" y="489"/>
      <point x="434" y="527" type="curve"/>
      <point x="381" y="522"/>
      <point x="301" y="520"/>
      <point x="223" y="520" type="curve" smooth="yes"/>
      <point x="158" y="520"/>
      <point x="94" y="522"/>
      <point x="55" y="527" type="curve"/>
      <point x="67" y="480"/>
      <point x="71" y="421"/>
      <point x="71" y="300" type="curve" smooth="yes"/>
      <point x="71" y="183"/>
      <point x="68" y="102"/>
      <point x="60" y="-3" type="curve"/>
    </contour>
    <contour>
      <point x="417" y="17" type="move" name="ogonek"/>
    </contour>
    <contour>
      <point x="250" y="527" type="move" name="top"/>
    </contour>
    <contour>
      <point x="20" y="527" type="move" name="topleft"/>
    </contour>
    <contour>
      <point x="237" y="0" type="move" name="bottom"/>
    </contour>
  </outline>
</glyph>
<glyph name="G" format="1">
  <advance width="532"/>
  <unicode hex="0047"/>
  <outline>
    <contour>
      <point x="348" y="-11"/>
      <point x="430" y="17"/>
      <point x="475" y="58" type="curve"/>
      <point x="476" y="132"/>
      <point x="480" y="211"/>
      <point x="485" y="258" type="curve"/>
      <point x="459" y="262"/>
      <point x="437" y="264"/>
      <point x="418" y="264" type="curve" smooth="yes"/>
      <point x="398" y="264"/>
      <point x="376" y="262"/>
      <point x="358" y="258" type="curve"/>
      <point x="369" y="233"/>
      <point x="374" y="174"/>
      <point x="374" y="79" type="curve"/>
      <point x="354" y="74"/>
      <point x="333" y="72"/>
      <point x="311" y="72" type="curve" smooth="yes"/>
      <point x="200" y="72"/>
      <point x="152" y="132"/>
      <point x="152" y="269" type="curve" smooth="yes"/>
      <point x="152" y="361"/>
      <point x="204" y="452"/>
      <point x="267" y="469" type="curve"/>
      <point x="305" y="469"/>
      <point x="378" y="436"/>
      <point x="435" y="395" type="curve"/>
      <point x="453" y="417"/>
      <point x="471" y="473"/>
      <point x="471" y="509" type="curve"/>
      <point x="431" y="525"/>
      <point x="376" y="533"/>
      <point x="314" y="533" type="curve" smooth="yes"/>
      <point x="151" y="533"/>
      <point x="37" y="413"/>
      <point x="37" y="241" type="curve" smooth="yes"/>
      <point x="37" y="79"/>
      <point x="120" y="-11"/>
      <point x="270" y="-11" type="curve" smooth="yes"/>
    </contour>
    <contour>
      <point x="286" y="527" type="move" name="top"/>
    </contour>
    <contour>
      <point x="266" y="0" type="move" name="bottom"/>
    </contour>
  </outline>
</glyph>
<glyph name="J" format="1">
  <advance width="314"/>
  <unicode hex="004A"/>
  <outline>
    <contour>
      <point x="203" y="-12"/>
      <point x="262" y="68"/>
      <point x="262" y="227" type="curve" smooth="yes"/>
      <point x="262" y="391"/>
      <point x="264" y="479"/>
      <point x="269" y="527" type="curve"/>
      <point x="244" y="531"/>
      <point x="222" y="533"/>
      <point x="202" y="533" type="curve" smooth="yes"/>
      <point x="181" y="533"/>
      <point x="158" y="531"/>
      <point x="137" y="527" type="curve"/>
      <point x="150" y="495"/>
      <point x="157" y="414"/>
      <point x="157" y="300" type="curve" smooth="yes"/>
      <point x="157" y="103"/>
      <point x="153" y="70"/>
      <point x="126" y="50" type="curve"/>
      <point x="99" y="50"/>
      <point x="56" y="74"/>
      <point x="14" y="111" type="curve"/>
      <point x="-2" y="83"/>
      <point x="-15" y="34"/>
      <point x="-15" y="2" type="curve"/>
      <point x="14" y="-7"/>
      <point x="48" y="-12"/>
      <point x="84" y="-12" type="curve" smooth="yes"/>
    </contour>
    <contour>
      <point x="202" y="527" type="move" name="top"/>
    </contour>
    <contour>
      <point x="152" y="0" type="move" name="bottom"/>
    </contour>
  </outline>
</glyph>
<glyph name="O" format="1">
  <advance width="611"/>
  <unicode hex="004F"/>
  <outline>
    <contour>
      <point x="453" y="-13"/>
      <point x="575" y="105"/>
      <point x="575" y="272" type="curve" smooth="yes"/>
      <point x="575" y="430"/>
      <point x="474" y="535"/>
      <point x="324" y="535" type="curve" smooth="yes"/>
      <point x="155" y="535"/>
      <point x="37" y="415"/>
      <point x="37" y="244" type="curve" smooth="yes"/>
      <point x="37" y="90"/>
      <point x="134" y="-13"/>
      <point x="279" y="-13" type="curve" smooth="yes"/>
    </contour>
    <contour>
      <point x="212" y="49"/>
      <point x="152" y="126"/>
      <point x="152" y="241" type="curve" smooth="yes"/>
      <point x="152" y="354"/>
      <point x="222" y="436"/>
      <point x="319" y="436" type="curve"/>
      <point x="406" y="418"/>
      <point x="459" y="340"/>
      <point x="459" y="234" type="curve" smooth="yes"/>
      <point x="459" y="120"/>
      <point x="398" y="49"/>
      <point x="302" y="49" type="curve" smooth="yes"/>
    </contour>
    <contour>
      <point x="305" y="264" type="move" name="center"/>
    </contour>
    <contour>
      <point x="550" y="10" type="move" name="ogonek"/>
    </contour>
    <contour>
      <point x="305" y="527" type="move" name="top"/>
    </contour>
    <contour>
      <point x="591" y="527" type="move" name="topright"/>
    </contour>
    <contour>
      <point x="20" y="527" type="move" name="topleft"/>
    </contour>
    <contour>
      <point x="305" y="0" type="move" name="bottom"/>
    </contour>
  </outline>
</glyph>
<glyph name="Q" format="1">
  <advance width="611"/>
  <unicode hex="0051"/>
  <outline>
    <contour>
      <point x="401" y="-134"/>
      <point x="443" y="-129"/>
      <point x="484" y="-113" type="curve"/>
      <point x="449" y="-90"/>
      <point x="403" y="-38"/>
      <point x="354" y="25" type="curve"/>
      <point x="252" y="25" type="line"/>
      <point x="298" y="-47"/>
      <point x="333" y="-105"/>
      <point x="348" y="-134" type="curve"/>
    </contour>
    <component base="O"/>
  </outline>
</glyph>
<glyph name="X" format="1">
  <advance width="518"/>
  <unicode hex="0058"/>
  <outline>
    <contour>
      <point x="38" y="-6"/>
      <point x="72" y="-5"/>
      <point x="115" y="0" type="curve"/>
      <point x="121" y="26"/>
      <point x="159" y="89"/>
      <point x="245" y="198" type="curve"/>
      <point x="311" y="101"/>
      <point x="366" y="14"/>
      <point x="374" y="-6" type="curve"/>
      <point x="430" y="-6"/>
      <point x="473" y="-1"/>
      <point x="516" y="15" type="curve"/>
      <point x="490" y="34"/>
      <point x="399" y="162"/>
      <point x="315" y="285" type="curve"/>
      <point x="373" y="361"/>
      <point x="454" y="464"/>
      <point x="518" y="533" type="curve"/>
      <point x="479" y="533"/>
      <point x="445" y="532"/>
      <point x="402" y="527" type="curve"/>
      <point x="396" y="502"/>
      <point x="361" y="442"/>
      <point x="280" y="339" type="curve"/>
      <point x="217" y="432"/>
      <point x="166" y="514"/>
      <point x="158" y="533" type="curve"/>
      <point x="102" y="533"/>
      <point x="58" y="528"/>
      <point x="16" y="512" type="curve"/>
      <point x="41" y="493"/>
      <point x="127" y="372"/>
      <point x="209" y="252" type="curve"/>
      <point x="151" y="175"/>
      <point x="66" y="66"/>
      <point x="-1" y="-6" type="curve"/>
    </contour>
  </outline>
</glyph>
<glyph name="underscore" format="1">
  <advance width="502"/>
  <unicode hex="005F"/>
  <outline>
    <contour>
      <point x="97" y="-104"/>
      <point x="180" y="-95"/>
      <point x="258" y="-95" type="curve" smooth="yes"/>
      <point x="320" y="-95"/>
      <point x="383" y="-96"/>
      <point x="454" y="-100" type="curve"/>
      <point x="454" y="-59"/>
      <point x="450" y="-23"/>
      <point x="437" y="19" type="curve"/>
      <point x="403" y="9"/>
      <point x="320" y="0"/>
      <point x="243" y="0" type="curve" smooth="yes"/>
      <point x="180" y="0"/>
      <point x="118" y="1"/>
      <point x="48" y="5" type="curve"/>
      <point x="48" y="-37"/>
      <point x="52" y="-73"/>
      <point x="64" y="-114" type="curve"/>
    </contour>
  </outline>
</glyph>
<glyph name="b" format="1">
  <advance width="482"/>
  <unicode hex="0062"/>
  <outline>
    <contour>
      <point x="376" y="-9"/>
      <point x="447" y="70"/>
      <point x="447" y="212" type="curve" smooth="yes"/>
      <point x="447" y="337"/>
      <point x="388" y="410"/>
      <point x="287" y="410" type="curve" smooth="yes"/>
      <point x="243" y="410"/>
      <point x="199" y="393"/>
      <point x="162" y="365" type="curve"/>
      <point x="165" y="439"/>
      <point x="169" y="513"/>
      <point x="172" y="547" type="curve"/>
      <point x="120" y="547"/>
      <point x="82" y="541"/>
      <point x="42" y="527" type="curve"/>
      <point x="54" y="488"/>
      <point x="59" y="427"/>
      <point x="59" y="333" type="curve" smooth="yes"/>
      <point x="59" y="246"/>
      <point x="56" y="75"/>
      <point x="50" y="5" type="curve"/>
      <point x="67" y="2"/>
      <point x="80" y="0"/>
      <point x="94" y="0" type="curve"/>
      <point x="119" y="40" type="line"/>
      <point x="149" y="10"/>
      <point x="194" y="-9"/>
      <point x="247" y="-9" type="curve" smooth="yes"/>
    </contour>
    <contour>
      <point x="207" y="47"/>
      <point x="184" y="58"/>
      <point x="165" y="78" type="curve"/>
      <point x="160" y="102"/>
      <point x="158" y="135"/>
      <point x="158" y="192" type="curve" smooth="yes"/>
      <point x="158" y="217"/>
      <point x="159" y="257"/>
      <point x="160" y="302" type="curve"/>
      <point x="189" y="318"/>
      <point x="224" y="327"/>
      <point x="255" y="327" type="curve"/>
      <point x="306" y="305"/>
      <point x="336" y="255"/>
      <point x="336" y="174" type="curve" smooth="yes"/>
      <point x="336" y="91"/>
      <point x="300" y="47"/>
      <point x="232" y="47" type="curve" smooth="yes"/>
    </contour>
    <contour>
      <point x="242" y="407" type="move" name="top"/>
    </contour>
    <contour>
      <point x="242" y="0" type="move" name="bottom"/>
    </contour>
  </outline>
</glyph>
<glyph name="d" format="1">
  <advance width="500"/>
  <unicode hex="0064"/>
  <outline>
    <contour>
      <point x="250" y="-12"/>
      <point x="295" y="8"/>
      <point x="330" y="41" type="curve"/>
      <point x="337" y="19"/>
      <point x="349" y="2"/>
      <point x="367" y="-11" type="curve"/>
      <point x="403" y="-7"/>
      <point x="439" y="9"/>
      <point x="467" y="30" type="curve"/>
      <point x="436" y="66"/>
      <point x="428" y="91"/>
      <point x="428" y="145" type="curve" smooth="yes"/>
      <point x="428" y="331"/>
      <point x="433" y="477"/>
      <point x="440" y="547" type="curve"/>
      <point x="394" y="547"/>
      <point x="353" y="543"/>
      <point x="309" y="527" type="curve"/>
      <point x="318" y="493"/>
      <point x="324" y="446"/>
      <point x="327" y="382" type="curve"/>
      <point x="292" y="406"/>
      <point x="254" y="418"/>
      <point x="212" y="418" type="curve" smooth="yes"/>
      <point x="99" y="418"/>
      <point x="40" y="343"/>
      <point x="40" y="197" type="curve" smooth="yes"/>
      <point x="40" y="60"/>
      <point x="97" y="-12"/>
      <point x="207" y="-12" type="curve" smooth="yes"/>
    </contour>
    <contour>
      <point x="182" y="57"/>
      <point x="150" y="109"/>
      <point x="150" y="188" type="curve" smooth="yes"/>
      <point x="150" y="277"/>
      <point x="185" y="323"/>
      <point x="251" y="323" type="curve" smooth="yes"/>
      <point x="280" y="323"/>
      <point x="306" y="316"/>
      <point x="328" y="303" type="curve"/>
      <point x="328" y="227"/>
      <point x="324" y="153"/>
      <point x="324" y="87" type="curve"/>
      <point x="297" y="66"/>
      <point x="265" y="50"/>
      <point x="237" y="47" type="curve"/>
    </contour>
    <contour>
      <point x="359" y="470" type="move" name="center"/>
    </contour>
    <contour>
      <point x="255" y="407" type="move" name="top"/>
    </contour>
    <contour>
      <point x="537" y="407" type="move" name="topright"/>
    </contour>
    <contour>
      <point x="255" y="0" type="move" name="bottom"/>
    </contour>
  </outline>
</glyph>
<glyph name="f" format="1">
  <advance width="317"/>
  <unicode hex="0066"/>
  <outline>
    <contour>
      <point x="170" y="-81"/>
      <point x="200" y="-33"/>
      <point x="200" y="63" type="curve" smooth="yes"/>
      <point x="200" y="109"/>
      <point x="193" y="181"/>
      <point x="193" y="279" type="curve" smooth="yes"/>
      <point x="193" y="336" type="line"/>
      <point x="232" y="335"/>
      <point x="259" y="331"/>
      <point x="282" y="324" type="curve"/>
      <point x="294" y="351"/>
      <point x="299" y="373"/>
      <point x="299" y="404" type="curve"/>
      <point x="276" y="399"/>
      <point x="240" y="397"/>
      <point x="195" y="396" type="curve"/>
      <point x="198" y="478"/>
      <point x="207" y="507"/>
      <point x="228" y="523" type="curve"/>
      <point x="256" y="521"/>
      <point x="295" y="500"/>
      <point x="342" y="463" type="curve"/>
      <point x="357" y="489"/>
      <point x="371" y="543"/>
      <point x="371" y="569" type="curve"/>
      <point x="342" y="580"/>
      <point x="306" y="585"/>
      <point x="268" y="585" type="curve" smooth="yes"/>
      <point x="173" y="585"/>
      <point x="103" y="514"/>
      <point x="86" y="406" type="curve"/>
      <point x="66" y="392"/>
      <point x="46" y="380"/>
      <point x="23" y="368" type="curve"/>
      <point x="23" y="341"/>
      <point x="33" y="334"/>
      <point x="86" y="333" type="curve"/>
      <point x="101" y="-20"/>
      <point x="96" y="-69"/>
      <point x="43" y="-140" type="curve"/>
      <point x="65" y="-159" type="line"/>
    </contour>
    <contour>
      <point x="148" y="407" type="move" name="top"/>
    </contour>
    <contour>
      <point x="148" y="0" type="move" name="bottom"/>
    </contour>
  </outline>
</glyph>
<glyph name="g" format="1">
  <advance width="446"/>
  <unicode hex="0067"/>
  <outline>
    <contour>
      <point x="328" y="-180"/>
      <point x="421" y="-119"/>
      <point x="421" y="-38" type="curve" smooth="yes"/>
      <point x="421" y="23"/>
      <point x="379" y="58"/>
      <point x="301" y="65" type="curve" smooth="yes"/>
      <point x="113" y="75" type="line"/>
      <point x="113" y="101"/>
      <point x="149" y="119"/>
      <point x="206" y="119" type="curve" smooth="yes"/>
      <point x="316" y="119"/>
      <point x="394" y="184"/>
      <point x="394" y="277" type="curve" smooth="yes"/>
      <point x="394" y="303"/>
      <point x="388" y="326"/>
      <point x="377" y="345" type="curve"/>
      <point x="403" y="348"/>
      <point x="427" y="354"/>
      <point x="446" y="364" type="curve"/>
      <point x="446" y="386"/>
      <point x="434" y="427"/>
      <point x="420" y="454" type="curve"/>
      <point x="387" y="426"/>
      <point x="352" y="404"/>
      <point x="325" y="397" type="curve"/>
      <point x="300" y="410"/>
      <point x="269" y="418"/>
      <point x="234" y="418" type="curve" smooth="yes"/>
      <point x="126" y="418"/>
      <point x="51" y="353"/>
      <point x="51" y="260" type="curve" smooth="yes"/>
      <point x="51" y="206"/>
      <point x="75" y="164"/>
      <point x="118" y="140" type="curve"/>
      <point x="72" y="121"/>
      <point x="44" y="88"/>
      <point x="44" y="49" type="curve" smooth="yes"/>
      <point x="44" y="23"/>
      <point x="57" y="2"/>
      <point x="80" y="-9" type="curve"/>
      <point x="48" y="-44"/>
      <point x="30" y="-91"/>
      <point x="30" y="-137" type="curve"/>
      <point x="69" y="-164"/>
      <point x="130" y="-180"/>
      <point x="204" y="-180" type="curve" smooth="yes"/>
    </contour>
    <contour>
      <point x="178" y="-110"/>
      <point x="139" y="-93"/>
      <point x="114" y="-62" type="curve"/>
      <point x="117" y="-48"/>
      <point x="123" y="-32"/>
      <point x="130" y="-19" type="curve"/>
      <point x="274" y="-27" type="line" smooth="yes"/>
      <point x="320" y="-29"/>
      <point x="337" y="-37"/>
      <point x="337" y="-60" type="curve" smooth="yes"/>
      <point x="337" y="-89"/>
      <point x="294" y="-110"/>
      <point x="229" y="-110" type="curve" smooth="yes"/>
    </contour>
    <contour>
      <point x="177" y="171"/>
      <point x="147" y="201"/>
      <point x="147" y="248" type="curve" smooth="yes"/>
      <point x="147" y="297"/>
      <point x="181" y="332"/>
      <point x="229" y="332" type="curve"/>
      <point x="271" y="320"/>
      <point x="297" y="289"/>
      <point x="297" y="246" type="curve" smooth="yes"/>
      <point x="297" y="198"/>
      <point x="268" y="171"/>
      <point x="221" y="171" type="curve" smooth="yes"/>
    </contour>
    <contour>
      <point x="230" y="407" type="move" name="top"/>
    </contour>
    <contour>
      <point x="226" y="0" type="move" name="bottom"/>
    </contour>
  </outline>
</glyph>
<glyph name="k" format="1">
  <advance width="453"/>
  <unicode hex="006B"/>
  <outline>
    <contour>
      <point x="146" y="-6"/>
      <point x="167" y="-4"/>
      <point x="187" y="0" type="curve"/>
      <point x="178" y="21"/>
      <point x="171" y="67"/>
      <point x="168" y="135" type="curve"/>
      <point x="212" y="185" type="line"/>
      <point x="269" y="97"/>
      <point x="313" y="27"/>
      <point x="331" y="-6" type="curve"/>
      <point x="384" y="-6"/>
      <point x="429" y="-1"/>
      <point x="468" y="15" type="curve"/>
      <point x="420" y="51"/>
      <point x="351" y="156"/>
      <point x="286" y="265" type="curve"/>
      <point x="337" y="320"/>
      <point x="390" y="375"/>
      <point x="436" y="418" type="curve"/>
      <point x="400" y="418"/>
      <point x="367" y="416"/>
      <point x="323" y="407" type="curve"/>
      <point x="323" y="384"/>
      <point x="295" y="348"/>
      <point x="166" y="210" type="curve"/>
      <point x="166" y="227" type="line" smooth="yes"/>
      <point x="166" y="338"/>
      <point x="173" y="477"/>
      <point x="182" y="547" type="curve"/>
      <point x="131" y="547"/>
      <point x="92" y="541"/>
      <point x="52" y="527" type="curve"/>
      <point x="58" y="468"/>
      <point x="62" y="367"/>
      <point x="62" y="255" type="curve" smooth="yes"/>
      <point x="62" y="171"/>
      <point x="59" y="73"/>
      <point x="55" y="0" type="curve"/>
      <point x="82" y="-4"/>
      <point x="105" y="-6"/>
      <point x="126" y="-6" type="curve" smooth="yes"/>
    </contour>
    <contour>
      <point x="230" y="407" type="move" name="top"/>
    </contour>
    <contour>
      <point x="230" y="0" type="move" name="bottom"/>
    </contour>
  </outline>
</glyph>
<glyph name="x" format="1">
  <advance width="450"/>
  <unicode hex="0078"/>
  <outline>
    <contour>
      <point x="39" y="-6"/>
      <point x="73" y="-5"/>
      <point x="116" y="0" type="curve"/>
      <point x="120" y="18"/>
      <point x="133" y="44"/>
      <point x="206" y="143" type="curve"/>
      <point x="244" y="88"/>
      <point x="280" y="34"/>
      <point x="303" y="-6" type="curve"/>
      <point x="358" y="-6"/>
      <point x="404" y="-1"/>
      <point x="445" y="15" type="curve"/>
      <point x="414" y="42"/>
      <point x="345" y="131"/>
      <point x="279" y="225" type="curve"/>
      <point x="325" y="285"/>
      <point x="386" y="360"/>
      <point x="434" y="413" type="curve"/>
      <point x="399" y="413"/>
      <point x="365" y="411"/>
      <point x="322" y="402" type="curve"/>
      <point x="318" y="386"/>
      <point x="307" y="362"/>
      <point x="243" y="276" type="curve"/>
      <point x="208" y="327"/>
      <point x="176" y="375"/>
      <point x="154" y="413" type="curve"/>
      <point x="98" y="413"/>
      <point x="53" y="408"/>
      <point x="13" y="392" type="curve"/>
      <point x="43" y="365"/>
      <point x="107" y="283"/>
      <point x="169" y="196" type="curve"/>
      <point x="122" y="133"/>
      <point x="56" y="51"/>
      <point x="4" y="-6" type="curve"/>
    </contour>
    <contour>
      <point x="226" y="407" type="move" name="top"/>
    </contour>
    <contour>
      <point x="226" y="0" type="move" name="bottom"/>
    </contour>
  </outline>
</glyph>
<glyph name="asciitilde" format="1">
  <advance width="533"/>
  <unicode hex="007E"/>
  <outline>
    <contour>
      <point x="414" y="204"/>
      <point x="455" y="226"/>
      <point x="468" y="299" type="curve"/>
      <point x="447" y="309"/>
      <point x="422" y="316"/>
      <point x="400" y="318" type="curve"/>
      <point x="393" y="292"/>
      <point x="376" y="282"/>
      <point x="351" y="282" type="curve" smooth="yes"/>
      <point x="287" y="282"/>
      <point x="229" y="327"/>
      <point x="166" y="327" type="curve" smooth="yes"/>
      <point x="119" y="327"/>
      <point x="77" y="306"/>
      <point x="65" y="232" type="curve"/>
      <point x="86" y="222"/>
      <point x="111" y="215"/>
      <point x="133" y="213" type="curve"/>
      <point x="140" y="240"/>
      <point x="157" y="250"/>
      <point x="181" y="250" type="curve" smooth="yes"/>
      <point x="245" y="250"/>
      <point x="304" y="204"/>
      <point x="367" y="204" type="curve" smooth="yes"/>
    </contour>
  </outline>
</glyph>
<glyph name="cent" format="1">
  <advance width="406"/>
  <unicode hex="00A2"/>
  <outline>
    <contour>
      <point x="254" y="451" type="line"/>
      <point x="255" y="500"/>
      <point x="256" y="544"/>
      <point x="258" y="577" type="curve"/>
      <point x="245" y="581"/>
      <point x="231" y="584"/>
      <point x="220" y="584" type="curve" smooth="yes"/>
      <point x="207" y="584"/>
      <point x="193" y="581"/>
      <point x="182" y="577" type="curve"/>
      <point x="186" y="555"/>
      <point x="189" y="512"/>
      <point x="190" y="451" type="curve"/>
    </contour>
    <contour>
      <point x="237" y="-56"/>
      <point x="250" y="-54"/>
      <point x="262" y="-51" type="curve"/>
      <point x="257" y="-29"/>
      <point x="255" y="12"/>
      <point x="253" y="71" type="curve"/>
      <point x="189" y="71" type="line"/>
      <point x="188" y="23"/>
      <point x="186" y="-19"/>
      <point x="185" y="-51" type="curve"/>
      <point x="200" y="-54"/>
      <point x="213" y="-56"/>
      <point x="224" y="-56" type="curve" smooth="yes"/>
    </contour>
    <component base="c" yOffset="61"/>
  </outline>
</glyph>
<glyph name="sterling" format="1">
  <advance width="510"/>
  <unicode hex="00A3"/>
  <outline>
    <contour>
      <point x="450" y="14"/>
      <point x="459" y="72"/>
      <point x="459" y="116" type="curve"/>
      <point x="420" y="100"/>
      <point x="354" y="90"/>
      <point x="289" y="90" type="curve" smooth="yes"/>
      <point x="248" y="90"/>
      <point x="199" y="93"/>
      <point x="169" y="97" type="curve"/>
      <point x="197" y="138"/>
      <point x="205" y="183"/>
      <point x="205" y="227" type="curve" smooth="yes"/>
      <point x="205" y="289"/>
      <point x="189" y="350"/>
      <point x="189" y="394" type="curve" smooth="yes"/>
      <point x="189" y="436"/>
      <point x="212" y="463"/>
      <point x="256" y="470" type="curve"/>
      <point x="299" y="463"/>
      <point x="353" y="437"/>
      <point x="410" y="395" type="curve"/>
      <point x="429" y="421"/>
      <point x="446" y="474"/>
      <point x="446" y="509" type="curve"/>
      <point x="409" y="524"/>
      <point x="332" y="534"/>
      <point x="263" y="534" type="curve" smooth="yes"/>
      <point x="142" y="534"/>
      <point x="72" y="486"/>
      <point x="72" y="404" type="curve" smooth="yes"/>
      <point x="72" y="316"/>
      <point x="124" y="244"/>
      <point x="124" y="173" type="curve" smooth="yes"/>
      <point x="124" y="129"/>
      <point x="105" y="87"/>
      <point x="42" y="41" type="curve"/>
      <point x="42" y="0" type="line"/>
      <point x="81" y="2"/>
      <point x="141" y="3"/>
      <point x="206" y="3" type="curve" smooth="yes"/>
      <point x="304" y="3"/>
      <point x="412" y="0"/>
      <point x="438" y="-5" type="curve"/>
    </contour>
    <component base="uni0335"/>
  </outline>
</glyph>
<glyph name="brokenbar" format="1">
  <advance width="347"/>
  <unicode hex="00A6"/>
  <outline>
    <contour>
      <point x="139" y="310" type="line"/>
      <point x="169" y="339"/>
      <point x="202" y="366"/>
      <point x="236" y="391" type="curve"/>
      <point x="236" y="451"/>
      <point x="241" y="583"/>
      <point x="247" y="630" type="curve"/>
      <point x="219" y="636"/>
      <point x="196" y="639"/>
      <point x="174" y="639" type="curve" smooth="yes"/>
      <point x="147" y="639"/>
      <point x="119" y="636"/>
      <point x="95" y="630" type="curve"/>
      <point x="106" y="576"/>
      <point x="111" y="496"/>
      <point x="111" y="310" type="curve"/>
    </contour>
    <contour>
      <point x="195" y="-111"/>
      <point x="223" y="-108"/>
      <point x="247" y="-102" type="curve"/>
      <point x="237" y="-48"/>
      <point x="231" y="32"/>
      <point x="231" y="218" type="curve"/>
      <point x="204" y="218" type="line"/>
      <point x="173" y="189"/>
      <point x="141" y="162"/>
      <point x="106" y="137" type="curve"/>
      <point x="106" y="78"/>
      <point x="101" y="-55"/>
      <point x="95" y="-102" type="curve"/>
      <point x="123" y="-108"/>
      <point x="147" y="-111"/>
      <point x="168" y="-111" type="curve" smooth="yes"/>
    </contour>
  </outline>
</glyph>
<glyph name="ordfeminine" format="1">
  <advance width="346"/>
  <unicode hex="00AA"/>
  <outline>
    <contour>
      <point x="137" y="293"/>
      <point x="174" y="305"/>
      <point x="207" y="326" type="curve"/>
      <point x="212" y="312"/>
      <point x="221" y="302"/>
      <point x="234" y="293" type="curve"/>
      <point x="260" y="295"/>
      <point x="285" y="304"/>
      <point x="305" y="318" type="curve"/>
      <point x="284" y="339"/>
      <point x="278" y="354"/>
      <point x="278" y="386" type="curve" smooth="yes"/>
      <point x="278" y="416"/>
      <point x="284" y="450"/>
      <point x="284" y="485" type="curve" smooth="yes"/>
      <point x="284" y="541"/>
      <point x="247" y="572"/>
      <point x="181" y="572" type="curve" smooth="yes"/>
      <point x="132" y="572"/>
      <point x="82" y="546"/>
      <point x="54" y="507" type="curve"/>
      <point x="62" y="473" type="line"/>
      <point x="85" y="492"/>
      <point x="118" y="503"/>
      <point x="148" y="503" type="curve" smooth="yes"/>
      <point x="188" y="503"/>
      <point x="204" y="486"/>
      <point x="206" y="445" type="curve"/>
      <point x="96" y="438"/>
      <point x="41" y="408"/>
      <point x="41" y="354" type="curve" smooth="yes"/>
      <point x="41" y="318"/>
      <point x="65" y="293"/>
      <point x="107" y="293" type="curve" smooth="yes"/>
    </contour>
    <contour>
      <point x="132" y="341"/>
      <point x="124" y="355"/>
      <point x="124" y="368" type="curve" smooth="yes"/>
      <point x="124" y="396"/>
      <point x="153" y="414"/>
      <point x="205" y="417" type="curve"/>
      <point x="204" y="395"/>
      <point x="201" y="381"/>
      <point x="201" y="361" type="curve" smooth="yes"/>
      <point x="201" y="356" type="line"/>
      <point x="184" y="345"/>
      <point x="161" y="336"/>
      <point x="143" y="335" type="curve"/>
    </contour>
  </outline>
</glyph>
<glyph name="AE" format="1">
  <advance width="697"/>
  <unicode hex="00C6"/>
  <outline>
    <contour>
      <point x="60" y="-4"/>
      <point x="73" y="-2"/>
      <point x="88" y="2" type="curve"/>
      <point x="97" y="31"/>
      <point x="113" y="76"/>
      <point x="132" y="126" type="curve"/>
      <point x="153" y="130"/>
      <point x="186" y="131"/>
      <point x="229" y="131" type="curve" smooth="yes"/>
      <point x="267" y="131"/>
      <point x="310" y="130"/>
      <point x="346" y="127" type="curve"/>
      <point x="364" y="76"/>
      <point x="380" y="31"/>
      <point x="390" y="2" type="curve"/>
      <point x="423" y="3"/>
      <point x="477" y="4"/>
      <point x="533" y="4" type="curve" smooth="yes"/>
      <point x="580" y="4"/>
      <point x="629" y="2"/>
      <point x="661" y="-3" type="curve"/>
      <point x="674" y="16"/>
      <point x="682" y="75"/>
      <point x="682" y="113" type="curve"/>
      <point x="628" y="92"/>
      <point x="579" y="88"/>
      <point x="481" y="88" type="curve"/>
      <point x="464" y="128"/>
      <point x="444" y="178"/>
      <point x="424" y="230" type="curve"/>
      <point x="489" y="230"/>
      <point x="532" y="228"/>
      <point x="599" y="223" type="curve"/>
      <point x="602" y="238"/>
      <point x="603" y="253"/>
      <point x="603" y="266" type="curve" smooth="yes"/>
      <point x="603" y="280"/>
      <point x="602" y="294"/>
      <point x="599" y="308" type="curve"/>
      <point x="561" y="301"/>
      <point x="536" y="297"/>
      <point x="464" y="297" type="curve" smooth="yes"/>
      <point x="443" y="297"/>
      <point x="420" y="298"/>
      <point x="398" y="299" type="curve"/>
      <point x="349" y="430" type="line"/>
      <point x="380" y="434"/>
      <point x="419" y="438"/>
      <point x="454" y="438" type="curve" smooth="yes"/>
      <point x="506" y="438"/>
      <point x="564" y="429"/>
      <point x="599" y="411" type="curve"/>
      <point x="612" y="429"/>
      <point x="620" y="489"/>
      <point x="620" y="527" type="curve"/>
      <point x="567" y="522"/>
      <point x="487" y="520"/>
      <point x="409" y="520" type="curve" smooth="yes"/>
      <point x="331" y="520"/>
      <point x="255" y="522"/>
      <point x="208" y="527" type="curve"/>
      <point x="169" y="409"/>
      <point x="45" y="75"/>
      <point x="4" y="2" type="curve"/>
      <point x="19" y="-2"/>
      <point x="34" y="-4"/>
      <point x="49" y="-4" type="curve" smooth="yes"/>
    </contour>
    <contour>
      <point x="232" y="196"/>
      <point x="192" y="197"/>
      <point x="159" y="199" type="curve"/>
      <point x="187" y="274"/>
      <point x="216" y="352"/>
      <point x="239" y="406" type="curve"/>
      <point x="260" y="357"/>
      <point x="291" y="277"/>
      <point x="320" y="198" type="curve"/>
      <point x="305" y="197"/>
      <point x="285" y="196"/>
      <point x="266" y="196" type="curve" smooth="yes"/>
    </contour>
    <contour>
      <point x="354" y="527" type="move" name="top"/>
    </contour>
    <contour>
      <point x="354" y="0" type="move" name="bottom"/>
    </contour>
  </outline>
</glyph>
<glyph name="multiply" format="1">
  <advance width="533"/>
  <unicode hex="00D7"/>
  <outline>
    <contour>
      <point x="184" y="127"/>
      <point x="225" y="171"/>
      <point x="267" y="214" type="curve"/>
      <point x="309" y="171"/>
      <point x="350" y="127"/>
      <point x="390" y="82" type="curve"/>
      <point x="414" y="98"/>
      <point x="433" y="116"/>
      <point x="451" y="143" type="curve"/>
      <point x="405" y="183"/>
      <point x="362" y="224"/>
      <point x="319" y="266" type="curve"/>
      <point x="362" y="308"/>
      <point x="405" y="349"/>
      <point x="451" y="389" type="curve"/>
      <point x="431" y="415"/>
      <point x="418" y="429"/>
      <point x="390" y="450" type="curve"/>
      <point x="350" y="404"/>
      <point x="309" y="361"/>
      <point x="267" y="318" type="curve"/>
      <point x="225" y="361"/>
      <point x="184" y="404"/>
      <point x="144" y="450" type="curve"/>
      <point x="118" y="430"/>
      <point x="104" y="417"/>
      <point x="83" y="389" type="curve"/>
      <point x="128" y="349"/>
      <point x="172" y="308"/>
      <point x="215" y="266" type="curve"/>
      <point x="172" y="224"/>
      <point x="128" y="183"/>
      <point x="83" y="143" type="curve"/>
      <point x="99" y="119"/>
      <point x="117" y="99"/>
      <point x="144" y="82" type="curve"/>
    </contour>
  </outline>
</glyph>
<glyph name="dotlessi" format="1">
  <advance width="245"/>
  <unicode hex="0131"/>
  <outline>
    <contour>
      <point x="153" y="-9"/>
      <point x="186" y="0"/>
      <point x="212" y="27" type="curve"/>
      <point x="181" y="61"/>
      <point x="173" y="84"/>
      <point x="173" y="192" type="curve" smooth="yes"/>
      <point x="173" y="294"/>
      <point x="178" y="379"/>
      <point x="185" y="417" type="curve"/>
      <point x="140" y="417"/>
      <point x="101" y="413"/>
      <point x="55" y="397" type="curve"/>
      <point x="68" y="376"/>
      <point x="74" y="322"/>
      <point x="74" y="272" type="curve" smooth="yes"/>
      <point x="74" y="208"/>
      <point x="70" y="144"/>
      <point x="70" y="73" type="curve" smooth="yes"/>
      <point x="70" y="10"/>
      <point x="88" y="-9"/>
      <point x="134" y="-9" type="curve" smooth="yes"/>
    </contour>
    <contour>
      <point x="173" y="0" type="move" name="ogonek"/>
    </contour>
    <contour>
      <point x="128" y="0" type="move" name="bottom"/>
    </contour>
    <contour>
      <point x="123" y="407" type="move" name="top"/>
    </contour>
  </outline>
</glyph>
<glyph name="Eng" format="1">
  <advance width="538"/>
  <unicode hex="014A"/>
  <outline>
    <contour>
      <point x="434" y="-122"/>
      <point x="480" y="-63"/>
      <point x="480" y="63" type="curve" smooth="yes"/>
      <point x="480" y="230" type="line" smooth="yes"/>
      <point x="480" y="333"/>
      <point x="484" y="462"/>
      <point x="488" y="527" type="curve"/>
      <point x="470" y="531"/>
      <point x="455" y="533"/>
      <point x="441" y="533" type="curve" smooth="yes"/>
      <point x="428" y="533"/>
      <point x="413" y="531"/>
      <point x="400" y="527" type="curve"/>
      <point x="408" y="497"/>
      <point x="411" y="420"/>
      <point x="411" y="300" type="curve" smooth="yes"/>
      <point x="411" y="246"/>
      <point x="410" y="185"/>
      <point x="409" y="130" type="curve"/>
      <point x="330" y="260"/>
      <point x="226" y="443"/>
      <point x="182" y="527" type="curve"/>
      <point x="154" y="531"/>
      <point x="131" y="533"/>
      <point x="112" y="533" type="curve" smooth="yes"/>
      <point x="89" y="533"/>
      <point x="54" y="528"/>
      <point x="50" y="527" type="curve"/>
      <point x="57" y="497"/>
      <point x="61" y="418"/>
      <point x="61" y="297" type="curve" smooth="yes"/>
      <point x="61" y="194"/>
      <point x="58" y="65"/>
      <point x="53" y="0" type="curve"/>
      <point x="71" y="-4"/>
      <point x="87" y="-6"/>
      <point x="100" y="-6" type="curve" smooth="yes"/>
      <point x="114" y="-6"/>
      <point x="128" y="-4"/>
      <point x="142" y="0" type="curve"/>
      <point x="135" y="30"/>
      <point x="131" y="107"/>
      <point x="131" y="227" type="curve" smooth="yes"/>
      <point x="131" y="281"/>
      <point x="132" y="341"/>
      <point x="133" y="396" type="curve"/>
      <point x="211" y="267"/>
      <point x="316" y="83"/>
      <point x="359" y="0" type="curve" smooth="yes"/>
      <point x="380" y="-40"/>
      <point x="355" y="-115"/>
      <point x="276" y="-164" type="curve"/>
      <point x="290" y="-189" type="line"/>
    </contour>
    <contour>
      <point x="271" y="527" type="move" name="top"/>
    </contour>
    <contour>
      <point x="271" y="0" type="move" name="bottom"/>
    </contour>
  </outline>
</glyph>
<glyph name="eng" format="1">
  <advance width="516"/>
  <unicode hex="014B"/>
  <outline>
    <contour>
      <point x="383" y="-111"/>
      <point x="446" y="-63"/>
      <point x="446" y="63" type="curve" smooth="yes"/>
      <point x="446" y="115"/>
      <point x="450" y="232"/>
      <point x="450" y="280" type="curve" smooth="yes"/>
      <point x="450" y="362"/>
      <point x="420" y="418"/>
      <point x="333" y="418" type="curve" smooth="yes"/>
      <point x="283" y="418"/>
      <point x="234" y="394"/>
      <point x="199" y="354" type="curve"/>
      <point x="194" y="392"/>
      <point x="174" y="414"/>
      <point x="134" y="414" type="curve" smooth="yes"/>
      <point x="114" y="414"/>
      <point x="79" y="405"/>
      <point x="52" y="378" type="curve"/>
      <point x="83" y="344"/>
      <point x="91" y="321"/>
      <point x="91" y="213" type="curve" smooth="yes"/>
      <point x="91" y="139"/>
      <point x="88" y="57"/>
      <point x="84" y="0" type="curve"/>
      <point x="107" y="-4"/>
      <point x="134" y="-6"/>
      <point x="155" y="-6" type="curve" smooth="yes"/>
      <point x="175" y="-6"/>
      <point x="197" y="-4"/>
      <point x="216" y="0" type="curve"/>
      <point x="203" y="29"/>
      <point x="196" y="82"/>
      <point x="196" y="150" type="curve" smooth="yes"/>
      <point x="196" y="208"/>
      <point x="199" y="257"/>
      <point x="200" y="296" type="curve"/>
      <point x="221" y="310"/>
      <point x="245" y="317"/>
      <point x="276" y="317" type="curve" smooth="yes"/>
      <point x="322" y="317"/>
      <point x="341" y="295"/>
      <point x="341" y="242" type="curve" smooth="yes"/>
      <point x="341" y="106" type="line" smooth="yes"/>
      <point x="341" y="-50"/>
      <point x="308" y="-104"/>
      <point x="242" y="-164" type="curve"/>
      <point x="256" y="-189" type="line"/>
    </contour>
  </outline>
</glyph>
<glyph name="florin" format="1">
  <advance width="326"/>
  <unicode hex="0192"/>
  <outline>
    <contour>
      <point x="208" y="-39"/>
      <point x="203" y="117"/>
      <point x="203" y="279" type="curve" smooth="yes"/>
      <point x="203" y="455"/>
      <point x="210" y="501"/>
      <point x="238" y="523" type="curve"/>
      <point x="267" y="521"/>
      <point x="306" y="501"/>
      <point x="352" y="465" type="curve"/>
      <point x="367" y="491"/>
      <point x="381" y="545"/>
      <point x="381" y="571" type="curve"/>
      <point x="351" y="580"/>
      <point x="316" y="585"/>
      <point x="278" y="585" type="curve" smooth="yes"/>
      <point x="135" y="585"/>
      <point x="96" y="456"/>
      <point x="96" y="353" type="curve" smooth="yes"/>
      <point x="96" y="236"/>
      <point x="100" y="150"/>
      <point x="100" y="81" type="curve" smooth="yes"/>
      <point x="100" y="8"/>
      <point x="97" y="-49"/>
      <point x="86" y="-98" type="curve"/>
      <point x="125" y="-109"/>
      <point x="164" y="-114"/>
      <point x="215" y="-114" type="curve"/>
    </contour>
    <component base="uni0335" xOffset="-27" yOffset="70" xScale="0.943"/>
  </outline>
</glyph>
<glyph name="tildecomb" format="1">
  <advance width="302"/>
  <unicode hex="0303"/>
  <outline>
    <contour>
      <point x="65" y="604"/>
      <point x="260" y="373"/>
      <point x="288" y="582" type="curve"/>
      <point x="262" y="594" type="line"/>
      <point x="243" y="500"/>
      <point x="47" y="731"/>
      <point x="20" y="522" type="curve"/>
      <point x="45" y="510" type="line"/>
    </contour>
    <contour>
      <point x="154" y="607" type="move" name="top"/>
    </contour>
    <contour>
      <point x="154" y="407" type="move" name="_top"/>
    </contour>
  </outline>
</glyph>
<glyph name="uni0304" format="1">
  <advance width="294"/>
  <unicode hex="0304"/>
  <outline>
    <contour>
      <point x="42" y="506"/>
      <point x="100" y="513"/>
      <point x="150" y="513" type="curve" smooth="yes"/>
      <point x="188" y="513"/>
      <point x="226" y="512"/>
      <point x="268" y="509" type="curve"/>
      <point x="276" y="541"/>
      <point x="279" y="569"/>
      <point x="275" y="602" type="curve"/>
      <point x="252" y="595"/>
      <point x="194" y="588"/>
      <point x="144" y="588" type="curve" smooth="yes"/>
      <point x="106" y="588"/>
      <point x="68" y="589"/>
      <point x="26" y="592" type="curve"/>
      <point x="17" y="560"/>
      <point x="15" y="531"/>
      <point x="19" y="499" type="curve"/>
    </contour>
    <contour>
      <point x="147" y="605" type="move" name="top"/>
    </contour>
    <contour>
      <point x="147" y="407" type="move" name="_top"/>
    </contour>
  </outline>
</glyph>
<glyph name="uni030A" format="1">
  <advance width="252"/>
  <unicode hex="030A"/>
  <outline>
    <contour>
      <point x="179" y="456"/>
      <point x="223" y="496"/>
      <point x="223" y="551" type="curve" smooth="yes"/>
      <point x="223" y="603"/>
      <point x="187" y="638"/>
      <point x="132" y="638" type="curve" smooth="yes"/>
      <point x="71" y="638"/>
      <point x="28" y="598"/>
      <point x="28" y="542" type="curve" smooth="yes"/>
      <point x="28" y="491"/>
      <point x="64" y="456"/>
      <point x="116" y="456" type="curve" smooth="yes"/>
    </contour>
    <contour>
      <point x="105" y="501"/>
      <point x="93" y="518"/>
      <point x="93" y="546" type="curve" smooth="yes"/>
      <point x="93" y="575"/>
      <point x="107" y="593"/>
      <point x="129" y="593" type="curve"/>
      <point x="148" y="587"/>
      <point x="159" y="570"/>
      <point x="159" y="546" type="curve" smooth="yes"/>
      <point x="159" y="518"/>
      <point x="146" y="501"/>
      <point x="126" y="501" type="curve" smooth="yes"/>
    </contour>
    <contour>
      <point x="127" y="645" type="move" name="top"/>
    </contour>
    <contour>
      <point x="127" y="407" type="move" name="_top"/>
    </contour>
  </outline>
</glyph>
<glyph name="uni0336" format="1">
  <advance width="634"/>
  <unicode hex="0336"/>
  <outline>
    <contour>
      <point x="133" y="190"/>
      <point x="173" y="194"/>
      <point x="304" y="194" type="curve" smooth="yes"/>
      <point x="397" y="194"/>
      <point x="512" y="191"/>
      <point x="574" y="187" type="curve"/>
      <point x="578" y="200"/>
      <point x="582" y="214"/>
      <point x="582" y="226" type="curve" smooth="yes"/>
      <point x="582" y="239"/>
      <point x="578" y="252"/>
      <point x="574" y="264" type="curve"/>
      <point x="507" y="258"/>
      <point x="460" y="255"/>
      <point x="331" y="255" type="curve" smooth="yes"/>
      <point x="236" y="255"/>
      <point x="125" y="257"/>
      <point x="60" y="262" type="curve"/>
      <point x="54" y="249"/>
      <point x="51" y="234"/>
      <point x="51" y="223" type="curve" smooth="yes"/>
      <point x="51" y="210"/>
      <point x="54" y="197"/>
      <point x="60" y="185" type="curve"/>
    </contour>
    <contour>
      <point x="317" y="224" type="move" name="_center"/>
    </contour>
  </outline>
</glyph>
<glyph name="uni0394" format="1">
  <advance width="524"/>
  <unicode hex="0394"/>
  <outline>
    <contour>
      <point x="90" y="3"/>
      <point x="176" y="4"/>
      <point x="262" y="4" type="curve" smooth="yes"/>
      <point x="348" y="4"/>
      <point x="434" y="3"/>
      <point x="519" y="0" type="curve"/>
      <point x="489" y="62"/>
      <point x="365" y="380"/>
      <point x="315" y="529" type="curve"/>
      <point x="299" y="532"/>
      <point x="281" y="534"/>
      <point x="264" y="534" type="curve" smooth="yes"/>
      <point x="246" y="534"/>
      <point x="229" y="532"/>
      <point x="209" y="529" type="curve"/>
      <point x="170" y="411"/>
      <point x="45" y="83"/>
      <point x="4" y="0" type="curve"/>
    </contour>
    <contour>
      <point x="207" y="81"/>
      <point x="158" y="82"/>
      <point x="115" y="84" type="curve"/>
      <point x="150" y="183"/>
      <point x="204" y="323"/>
      <point x="239" y="407" type="curve"/>
      <point x="272" y="332"/>
      <point x="328" y="185"/>
      <point x="364" y="83" type="curve"/>
      <point x="332" y="82"/>
      <point x="298" y="81"/>
      <point x="262" y="81" type="curve" smooth="yes"/>
    </contour>
  </outline>
</glyph>
<glyph name="uni03BC" format="1">
  <advance width="494"/>
  <unicode hex="03BC"/>
  <outline>
    <contour>
      <point x="152" y="-179"/>
      <point x="184" y="-168"/>
      <point x="208" y="-143" type="curve"/>
      <point x="179" y="-107"/>
      <point x="171" y="-82"/>
      <point x="169" y="10" type="curve"/>
      <point x="187" y="3"/>
      <point x="202" y="0"/>
      <point x="222" y="0" type="curve" smooth="yes"/>
      <point x="265" y="0"/>
      <point x="308" y="22"/>
      <point x="324" y="44" type="curve"/>
      <point x="334" y="15"/>
      <point x="355" y="0"/>
      <point x="384" y="0" type="curve" smooth="yes"/>
      <point x="407" y="0"/>
      <point x="433" y="10"/>
      <point x="461" y="30" type="curve"/>
      <point x="431" y="59"/>
      <point x="422" y="82"/>
      <point x="422" y="132" type="curve" smooth="yes"/>
      <point x="422" y="171"/>
      <point x="428" y="322"/>
      <point x="434" y="417" type="curve"/>
      <point x="389" y="417"/>
      <point x="358" y="411"/>
      <point x="319" y="397" type="curve"/>
      <point x="319" y="108" type="line"/>
      <point x="294" y="89"/>
      <point x="265" y="80"/>
      <point x="231" y="80" type="curve" smooth="yes"/>
      <point x="188" y="80"/>
      <point x="170" y="101"/>
      <point x="170" y="149" type="curve" smooth="yes"/>
      <point x="170" y="415" type="line"/>
      <point x="123" y="415"/>
      <point x="88" y="410"/>
      <point x="52" y="397" type="curve"/>
      <point x="65" y="368"/>
      <point x="71" y="323"/>
      <point x="71" y="257" type="curve" smooth="yes"/>
      <point x="71" y="101"/>
      <point x="65" y="-15"/>
      <point x="65" y="-96" type="curve" smooth="yes"/>
      <point x="65" y="-149"/>
      <point x="85" y="-179"/>
      <point x="129" y="-179" type="curve" smooth="yes"/>
    </contour>
  </outline>
</glyph>
<glyph name="emdash" format="1">
  <advance width="759"/>
  <unicode hex="2014"/>
  <outline>
    <contour>
      <point x="130" y="141"/>
      <point x="263" y="150"/>
      <point x="390" y="150" type="curve" smooth="yes"/>
      <point x="492" y="150"/>
      <point x="595" y="149"/>
      <point x="710" y="145" type="curve"/>
      <point x="710" y="187"/>
      <point x="703" y="223"/>
      <point x="680" y="265" type="curve"/>
      <point x="625" y="255"/>
      <point x="491" y="246"/>
      <point x="366" y="246" type="curve" smooth="yes"/>
      <point x="263" y="246"/>
      <point x="161" y="247"/>
      <point x="48" y="251" type="curve"/>
      <point x="48" y="209"/>
      <point x="55" y="173"/>
      <point x="77" y="131" type="curve"/>
    </contour>
  </outline>
</glyph>
<glyph name="fraction" format="1">
  <advance width="65"/>
  <unicode hex="2044"/>
  <outline>
    <contour>
      <point x="-64" y="-75"/>
      <point x="-47" y="-71"/>
      <point x="-31" y="-66" type="curve"/>
      <point x="32" y="145"/>
      <point x="104" y="356"/>
      <point x="187" y="567" type="curve"/>
      <point x="172" y="572"/>
      <point x="159" y="576"/>
      <point x="146" y="576" type="curve" smooth="yes"/>
      <point x="130" y="576"/>
      <point x="112" y="572"/>
      <point x="96" y="567" type="curve"/>
      <point x="33" y="356"/>
      <point x="-39" y="145"/>
      <point x="-122" y="-66" type="curve"/>
      <point x="-107" y="-71"/>
      <point x="-93" y="-75"/>
      <point x="-80" y="-75" type="curve" smooth="yes"/>
    </contour>
  </outline>
</glyph>
<glyph name="Euro" format="1">
  <advance width="513"/>
  <unicode hex="20AC"/>
  <outline>
    <contour>
      <point x="346" y="-11"/>
      <point x="423" y="25"/>
      <point x="465" y="78" type="curve"/>
      <point x="454" y="122" type="line"/>
      <point x="418" y="97"/>
      <point x="362" y="82"/>
      <point x="306" y="82" type="curve" smooth="yes"/>
      <point x="220" y="82"/>
      <point x="167" y="139"/>
      <point x="167" y="269" type="curve" smooth="yes"/>
      <point x="167" y="361"/>
      <point x="214" y="452"/>
      <point x="271" y="469" type="curve"/>
      <point x="304" y="469"/>
      <point x="367" y="437"/>
      <point x="416" y="395" type="curve"/>
      <point x="434" y="417"/>
      <point x="452" y="473"/>
      <point x="452" y="509" type="curve"/>
      <point x="416" y="525"/>
      <point x="369" y="533"/>
      <point x="315" y="533" type="curve" smooth="yes"/>
      <point x="162" y="533"/>
      <point x="55" y="413"/>
      <point x="55" y="241" type="curve" smooth="yes"/>
      <point x="55" y="79"/>
      <point x="133" y="-11"/>
      <point x="273" y="-11" type="curve" smooth="yes"/>
    </contour>
    <component base="uni0335" xOffset="-38" yOffset="68" xScale="0.984" yScale="0.984"/>
    <component base="uni0335" xOffset="-42" yOffset="-62" xScale="0.984" yScale="0.984"/>
    <contour>
      <point x="274" y="527" type="move" name="top"/>
    </contour>
    <contour>
      <point x="256" y="0" type="move" name="bottom"/>
    </contour>
  </outline>
</glyph>
<glyph name="partialdiff" format="1">
  <advance width="544"/>
  <unicode hex="2202"/>
  <outline>
    <contour>
      <point x="381" y="-11"/>
      <point x="486" y="136"/>
      <point x="486" y="310" type="curve" smooth="yes"/>
      <point x="486" y="482"/>
      <point x="391" y="573"/>
      <point x="211" y="573" type="curve"/>
      <point x="195" y="554"/>
      <point x="189" y="537"/>
      <point x="191" y="512" type="curve"/>
      <point x="318" y="512"/>
      <point x="373" y="432"/>
      <point x="374" y="309" type="curve"/>
      <point x="337" y="339"/>
      <point x="292" y="355"/>
      <point x="243" y="355" type="curve" smooth="yes"/>
      <point x="126" y="355"/>
      <point x="38" y="261"/>
      <point x="38" y="143" type="curve" smooth="yes"/>
      <point x="38" y="51"/>
      <point x="106" y="-11"/>
      <point x="213" y="-11" type="curve" smooth="yes"/>
    </contour>
    <contour>
      <point x="180" y="65"/>
      <point x="152" y="96"/>
      <point x="152" y="146" type="curve" smooth="yes"/>
      <point x="152" y="221"/>
      <point x="201" y="292"/>
      <point x="282" y="292" type="curve"/>
      <point x="315" y="282"/>
      <point x="345" y="266"/>
      <point x="368" y="243" type="curve"/>
      <point x="352" y="157"/>
      <point x="303" y="65"/>
      <point x="226" y="65" type="curve" smooth="yes"/>
    </contour>
  </outline>
</glyph>
<glyph name="product" format="1">
  <advance width="547"/>
  <unicode hex="220F"/>
  <outline>
    <contour>
      <point x="68" y="438"/>
      <point x="169" y="447"/>
      <point x="259" y="447" type="curve" smooth="yes"/>
      <point x="334" y="447"/>
      <point x="410" y="446"/>
      <point x="492" y="442" type="curve"/>
      <point x="512" y="480"/>
      <point x="522" y="519"/>
      <point x="522" y="561" type="curve"/>
      <point x="478" y="551"/>
      <point x="378" y="542"/>
      <point x="288" y="542" type="curve" smooth="yes"/>
      <point x="212" y="542"/>
      <point x="137" y="543"/>
      <point x="56" y="547" type="curve"/>
      <point x="35" y="509"/>
      <point x="25" y="469"/>
      <point x="25" y="428" type="curve"/>
    </contour>
    <component base="I" xOffset="26"/>
    <component base="I" xOffset="273"/>
  </outline>
</glyph>
<glyph name="integral" format="1">
  <advance width="349"/>
  <unicode hex="222B"/>
  <outline>
    <contour>
      <point x="191" y="-198"/>
      <point x="230" y="-69"/>
      <point x="230" y="34" type="curve" smooth="yes"/>
      <point x="230" y="138"/>
      <point x="226" y="216"/>
      <point x="226" y="279" type="curve" smooth="yes"/>
      <point x="226" y="455"/>
      <point x="233" y="501"/>
      <point x="261" y="523" type="curve"/>
      <point x="290" y="521"/>
      <point x="329" y="501"/>
      <point x="375" y="465" type="curve"/>
      <point x="390" y="491"/>
      <point x="404" y="545"/>
      <point x="404" y="571" type="curve"/>
      <point x="374" y="580"/>
      <point x="339" y="585"/>
      <point x="301" y="585" type="curve" smooth="yes"/>
      <point x="158" y="585"/>
      <point x="119" y="456"/>
      <point x="119" y="353" type="curve" smooth="yes"/>
      <point x="119" y="249"/>
      <point x="123" y="170"/>
      <point x="123" y="107" type="curve" smooth="yes"/>
      <point x="123" y="-69"/>
      <point x="116" y="-115"/>
      <point x="88" y="-136" type="curve"/>
      <point x="59" y="-134"/>
      <point x="20" y="-114"/>
      <point x="-26" y="-78" type="curve"/>
      <point x="-41" y="-104"/>
      <point x="-55" y="-158"/>
      <point x="-55" y="-184" type="curve"/>
      <point x="-25" y="-193"/>
      <point x="10" y="-198"/>
      <point x="48" y="-198" type="curve" smooth="yes"/>
    </contour>
  </outline>
</glyph>
<glyph name="fi" format="1">
  <advance width="526"/>
  <unicode hex="FB01"/>
  <outline>
    <contour>
      <point x="170" y="-81"/>
      <point x="200" y="-33"/>
      <point x="200" y="63" type="curve" smooth="yes"/>
      <point x="200" y="109"/>
      <point x="193" y="181"/>
      <point x="193" y="279" type="curve" smooth="yes"/>
      <point x="193" y="336" type="line"/>
      <point x="353" y="336" type="line"/>
      <point x="354" y="316"/>
      <point x="355" y="294"/>
      <point x="355" y="272" type="curve" smooth="yes"/>
      <point x="355" y="208"/>
      <point x="351" y="144"/>
      <point x="351" y="73" type="curve" smooth="yes"/>
      <point x="351" y="10"/>
      <point x="369" y="-9"/>
      <point x="414" y="-9" type="curve" smooth="yes"/>
      <point x="434" y="-9"/>
      <point x="467" y="0"/>
      <point x="493" y="27" type="curve"/>
      <point x="462" y="61"/>
      <point x="454" y="84"/>
      <point x="454" y="192" type="curve" smooth="yes"/>
      <point x="454" y="294"/>
      <point x="459" y="379"/>
      <point x="466" y="417" type="curve"/>
      <point x="424" y="417"/>
      <point x="388" y="413"/>
      <point x="346" y="397" type="curve"/>
      <point x="195" y="397" type="line"/>
      <point x="198" y="478"/>
      <point x="207" y="507"/>
      <point x="228" y="523" type="curve"/>
      <point x="266" y="520"/>
      <point x="317" y="497"/>
      <point x="378" y="455" type="curve"/>
      <point x="395" y="481"/>
      <point x="411" y="535"/>
      <point x="411" y="561" type="curve"/>
      <point x="369" y="576"/>
      <point x="321" y="585"/>
      <point x="268" y="585" type="curve" smooth="yes"/>
      <point x="173" y="585"/>
      <point x="103" y="514"/>
      <point x="86" y="406" type="curve"/>
      <point x="66" y="392"/>
      <point x="46" y="380"/>
      <point x="23" y="368" type="curve"/>
      <point x="23" y="341"/>
      <point x="33" y="334"/>
      <point x="86" y="333" type="curve"/>
      <point x="101" y="-20"/>
      <point x="96" y="-69"/>
      <point x="43" y="-140" type="curve"/>
      <point x="65" y="-159" type="line"/>
    </contour>
    <contour>
      <point x="460" y="0" type="move" name="ogonek"/>
    </contour>
    <contour>
      <point x="148" y="0" type="move" name="bottom"/>
    </contour>
    <contour>
      <point x="148" y="407" type="move" name="top"/>
    </contour>
  </outline>
</glyph>
<glyph name="five.dnom" format="1">
  <advance width="354"/>
  <outline>
    <contour>
      <point x="244" y="-6"/>
      <point x="289" y="26"/>
      <point x="289" y="85" type="curve" smooth="yes"/>
      <point x="289" y="131"/>
      <point x="248" y="169"/>
      <point x="191" y="169" type="curve" smooth="yes"/>
      <point x="161" y="169"/>
      <point x="134" y="161"/>
      <point x="112" y="146" type="curve"/>
      <point x="116" y="203" type="line"/>
      <point x="203" y="203" type="line" smooth="yes"/>
      <point x="232" y="203"/>
      <point x="249" y="201"/>
      <point x="261" y="194" type="curve"/>
      <point x="273" y="214"/>
      <point x="280" y="247"/>
      <point x="280" y="274" type="curve"/>
      <point x="261" y="270"/>
      <point x="222" y="268"/>
      <point x="179" y="268" type="curve" smooth="yes"/>
      <point x="129" y="268"/>
      <point x="101" y="270"/>
      <point x="88" y="274" type="curve"/>
      <point x="78" y="120" type="line"/>
      <point x="110" y="104" type="line"/>
      <point x="133" y="121"/>
      <point x="157" y="130"/>
      <point x="172" y="130" type="curve"/>
      <point x="200" y="120"/>
      <point x="211" y="106"/>
      <point x="211" y="85" type="curve" smooth="yes"/>
      <point x="211" y="57"/>
      <point x="188" y="40"/>
      <point x="150" y="40" type="curve" smooth="yes"/>
      <point x="116" y="40"/>
      <point x="86" y="52"/>
      <point x="68" y="71" type="curve"/>
      <point x="62" y="54"/>
      <point x="59" y="39"/>
      <point x="59" y="18" type="curve"/>
      <point x="88" y="3"/>
      <point x="123" y="-6"/>
      <point x="161" y="-6" type="curve" smooth="yes"/>
    </contour>
  </outline>
</glyph>
<glyph name="two.dnom" format="1">
  <advance width="354"/>
  <outline>
    <contour>
      <point x="298" y="11"/>
      <point x="303" y="47"/>
      <point x="303" y="73" type="curve"/>
      <point x="278" y="65"/>
      <point x="237" y="60"/>
      <point x="199" y="60" type="curve" smooth="yes"/>
      <point x="188" y="60"/>
      <point x="174" y="61"/>
      <point x="162" y="62" type="curve"/>
      <point x="244" y="106"/>
      <point x="290" y="156"/>
      <point x="290" y="205" type="curve" smooth="yes"/>
      <point x="290" y="249"/>
      <point x="245" y="277"/>
      <point x="176" y="277" type="curve" smooth="yes"/>
      <point x="137" y="277"/>
      <point x="92" y="269"/>
      <point x="56" y="258" type="curve"/>
      <point x="56" y="233"/>
      <point x="68" y="198"/>
      <point x="83" y="180" type="curve"/>
      <point x="118" y="205"/>
      <point x="155" y="222"/>
      <point x="180" y="227" type="curve"/>
      <point x="200" y="225"/>
      <point x="212" y="214"/>
      <point x="212" y="198" type="curve" smooth="yes"/>
      <point x="212" y="155"/>
      <point x="160" y="99"/>
      <point x="53" y="27" type="curve"/>
      <point x="53" y="0" type="line"/>
      <point x="120" y="3"/>
      <point x="263" y="2"/>
      <point x="292" y="-3" type="curve"/>
    </contour>
  </outline>
</glyph>
<glyph name="zero.dnom" format="1">
  <advance width="354"/>
  <outline>
    <contour>
      <point x="260" y="-6"/>
      <point x="325" y="56"/>
      <point x="325" y="145" type="curve" smooth="yes"/>
      <point x="325" y="224"/>
      <point x="271" y="277"/>
      <point x="192" y="277" type="curve" smooth="yes"/>
      <point x="96" y="277"/>
      <point x="29" y="216"/>
      <point x="29" y="130" type="curve" smooth="yes"/>
      <point x="29" y="49"/>
      <point x="84" y="-6"/>
      <point x="166" y="-6" type="curve" smooth="yes"/>
    </contour>
    <contour>
      <point x="136" y="58"/>
      <point x="110" y="93"/>
      <point x="110" y="146" type="curve" smooth="yes"/>
      <point x="110" y="195"/>
      <point x="141" y="233"/>
      <point x="183" y="233" type="curve"/>
      <point x="221" y="225"/>
      <point x="244" y="191"/>
      <point x="244" y="143" type="curve" smooth="yes"/>
      <point x="244" y="91"/>
      <point x="218" y="58"/>
      <point x="175" y="58" type="curve" smooth="yes"/>
    </contour>
  </outline>
</glyph>
